# xmcd
#
# Track frame offsets:
#	150
#	12287
#	24037
#	35012
#	48262
#	63150
#	75650
#	85037
#	96175
#	108200
#	119525
#	132525
#	144900
#	157912
#	172312
#	183637
#	193125
#	206050
#	215350
#	224275
#
# Disc length: 3160 seconds
#
# Revision: 1
# Processed by: cddbd v1.4PL0 Copyright (c) Steve Scherf et al.
# Submitted via: audiograbber 1.80
#
DISCID=170c5614
DTITLE=Reg Lindsay - 20 Golden Country Greats
DYEAR=1900
DGENRE=
TTITLE0=Armstrong
TTITLE1=Give Me Liberty
TTITLE2=Hello, I Love You
TTITLE3=July You're a Woman
TTITLE4=Queen Of The Starlight Ballroom
TTITLE5=Too Many Memories
TTITLE6=Mule Skinner Blues
TTITLE7=Love Can
TTITLE8=Fine As Wine
TTITLE9=When My Truckin' Days Are Gone
TTITLE10=Takin' A Chance
TTITLE11=Your Love Keeps Me Going
TTITLE12=Close The Door Lightly When You Go
TTITLE13=Ain't Gonna Let You Sock It To Me
TTITLE14=You've Got Everything You Want
TTITLE15=A Dollar An Hour
TTITLE16=There You Go (Runnin' Down My Cheek Again)
TTITLE17=King Of The Road
TTITLE18=It Takes A Drinking Man
TTITLE19=She's My Rock
EXTD=
EXTT0=
EXTT1=
EXTT2=
EXTT3=
EXTT4=
EXTT5=
EXTT6=
EXTT7=
EXTT8=
EXTT9=
EXTT10=
EXTT11=
EXTT12=
EXTT13=
EXTT14=
EXTT15=
EXTT16=
EXTT17=
EXTT18=
EXTT19=
PLAYORDER=
